<svg width="32" height="28" viewBox="0 0 32 28" fill="none" xmlns="http://www.w3.org/2000/svg">
<path d="M4.15145 15.9621C4.36076 16.1318 4.46258 16.3864 4.42299 16.6353C3.87992 20.5329 4.03832 23.1351 6.43119 26.5462C6.69706 26.9252 7.04779 27.2816 7.50035 27.638C7.72662 27.8303 7.95855 27.9434 8.23009 27.9887C8.281 27.9943 8.33757 28 8.39414 28C8.90892 28 9.5934 27.7228 9.76877 27.1175C9.82534 26.9252 9.83099 26.7159 9.81968 26.5009C9.83099 26.4217 9.83099 26.3369 9.81402 26.252C9.79139 26.1502 9.76877 26.054 9.74614 25.9579L9.74048 25.9352C9.73482 25.8956 9.72351 25.856 9.71785 25.8164C9.7122 25.8051 9.7122 25.7938 9.70654 25.7825C9.6726 25.6184 9.633 25.4657 9.59906 25.3186C9.3445 24.2212 9.17479 23.4971 9.33884 22.2695C9.52552 20.8893 10.589 20.1991 11.4432 20.0294C12.3031 19.8597 13.4627 20.086 14.1472 21.2456C14.9618 22.6259 14.5658 24.4757 14.2208 26.1049L14.1981 26.2464C14.1812 26.3312 14.1812 26.4104 14.1925 26.4896C14.1812 26.6989 14.1868 26.9139 14.2434 27.1062C14.4131 27.7172 15.0976 27.9943 15.635 27.9943C15.6972 27.9943 15.7538 27.9887 15.8103 27.983C16.0592 27.9434 16.2855 27.8303 16.4835 27.6549C16.9587 27.2816 17.3094 26.9308 17.581 26.5462C19.3572 24.0175 19.9851 21.8736 19.8154 18.8415C20.8337 18.5869 21.7897 18.1061 22.61 17.4216L24.2335 19.0451C23.8997 19.7862 24.0298 20.6913 24.6408 21.3022L28.4931 25.1546C28.8722 25.5336 29.3813 25.7429 29.9187 25.7429C30.4561 25.7429 30.9652 25.5336 31.3442 25.1546C32.1305 24.3683 32.1305 23.0898 31.3442 22.3035L27.4919 18.4511C27.1129 18.0721 26.6037 17.8628 26.0663 17.8628C25.7722 17.8628 25.495 17.9307 25.2348 18.0438L23.5999 16.409C25.5402 13.9991 25.676 10.605 23.9959 8.05939C24.1034 6.12473 23.549 4.35977 22.3837 2.9512C20.5904 0.784607 17.349 -0.358088 14.3282 0.100121C13.5363 0.218917 12.75 0.45085 11.9976 0.795921C11.2452 0.45085 10.4646 0.218917 9.6726 0.105778C6.65181 -0.358088 3.4104 0.784607 1.61716 2.9512C-1.58465 6.83184 0.338698 12.8112 4.15145 15.9621ZM25.6421 19.4524C25.7552 19.3393 25.9079 19.277 26.0663 19.277C26.2247 19.277 26.3775 19.3393 26.4906 19.4524L30.3429 23.3048C30.5749 23.5367 30.5749 23.9157 30.3429 24.1476C30.1167 24.3739 29.7207 24.3739 29.5001 24.1476L25.6477 20.2953C25.4101 20.069 25.4101 19.69 25.6421 19.4524ZM22.0839 15.9791C21.009 17.0539 19.5835 17.6422 18.0675 17.6422C16.5514 17.6422 15.1259 17.0539 14.051 15.9791C11.8392 13.7616 11.8392 10.1581 14.051 7.94625C15.1259 6.87144 16.5514 6.28312 18.0675 6.28312C19.5835 6.28312 21.009 6.87144 22.0839 7.94625C24.3014 10.1638 24.3014 13.7672 22.0839 15.9791ZM2.7146 3.85631C4.17974 2.09135 6.95728 1.12402 9.46895 1.50304C10.227 1.61617 10.9737 1.85376 11.6865 2.21581C11.7091 2.22712 11.7317 2.23278 11.7543 2.23843C11.7826 2.2554 11.8053 2.27803 11.8335 2.295C12.7556 2.7815 13.5928 3.46598 14.2434 4.26926C14.3848 4.43897 14.5885 4.52948 14.7921 4.52948C14.9505 4.52948 15.1089 4.47857 15.239 4.37109C15.5445 4.12218 15.5897 3.67529 15.3408 3.36982C14.8374 2.74756 14.2377 2.19318 13.5815 1.718C13.8983 1.62749 14.2151 1.54829 14.5375 1.50304C17.0492 1.12402 19.8268 2.09135 21.2919 3.85631C21.9028 4.59736 22.3045 5.46287 22.4855 6.41323C21.2353 5.41196 19.691 4.86324 18.0675 4.86324C16.1724 4.86324 14.3905 5.60429 13.0441 6.94498C10.2779 9.71121 10.2779 14.2198 13.0441 16.986C14.3848 18.3267 16.1667 19.0677 18.0675 19.0677C18.1806 19.0677 18.2881 19.0564 18.4012 19.0508C18.5313 21.6869 17.9769 23.5084 16.4213 25.7316C16.2346 25.9918 15.9857 26.2464 15.6067 26.5462C15.6124 26.4839 15.6237 26.3934 15.6406 26.2803C15.6406 26.2746 15.6463 26.269 15.6463 26.2633L15.6689 26.1502C16.0366 24.4022 16.4156 22.2978 15.3748 20.5272C14.5036 19.0451 12.8518 18.3041 11.166 18.6378C9.44067 18.9829 8.17352 20.3349 7.93027 22.0772C7.72662 23.565 7.94158 24.4814 8.21312 25.6411C8.25837 25.8277 8.30363 26.0314 8.34888 26.2407L8.35454 26.269C8.35454 26.2746 8.35454 26.2803 8.3602 26.286C8.3602 26.2916 8.3602 26.2916 8.3602 26.2973C8.37717 26.4048 8.38848 26.4896 8.39414 26.5518C8.02644 26.2633 7.77188 26.0088 7.5852 25.7429C5.44123 22.6825 5.30546 20.5272 5.82024 16.8446C5.92207 16.1035 5.63356 15.3681 5.04525 14.8816C2.20548 12.5114 -0.193052 7.37491 2.7146 3.85631Z" fill="#FA7D23"/>
<path d="M17.8865 9.56977C18.2655 8.857 18.2315 8.15554 18.175 7.80482C18.1127 7.41449 17.7507 7.15427 17.366 7.21084C16.9757 7.27307 16.7155 7.63511 16.772 8.01978C16.8003 8.2008 16.8173 8.55153 16.6306 8.8966C16.3138 9.49623 15.6237 9.62068 15.5445 9.63766C15.1598 9.69988 14.894 10.0619 14.9562 10.4522C15.0128 10.803 15.3126 11.0519 15.6576 11.0519C15.6972 11.0519 15.7312 11.0462 15.7708 11.0406C16.0197 11.0066 17.2585 10.7521 17.8865 9.56977Z" fill="#FA7D23"/>
<path d="M18.1411 12.6413C18.1581 12.8846 18.3108 14.1461 19.4365 14.8645C19.94 15.187 20.5566 15.3397 21.1675 15.2944C21.5579 15.2662 21.852 14.9267 21.8237 14.5364C21.8181 14.4516 21.7955 14.3724 21.7615 14.2988C21.6427 14.0329 21.3712 13.8576 21.0601 13.8802C20.879 13.8915 20.5283 13.8802 20.1946 13.6709C19.6232 13.3032 19.5497 12.6074 19.544 12.5282C19.5157 12.1379 19.1707 11.8437 18.7803 11.8777C18.4013 11.9116 18.1072 12.251 18.1411 12.6413Z" fill="#FA7D23"/>
<path d="M21.1222 11.109C21.5471 11.109 21.8916 10.7645 21.8916 10.3397C21.8916 9.91476 21.5471 9.57031 21.1222 9.57031C20.6974 9.57031 20.3529 9.91476 20.3529 10.3397C20.3529 10.7645 20.6974 11.109 21.1222 11.109Z" fill="#FA7D23"/>
<path d="M14.5716 15.5387C14.9965 15.5387 15.3409 15.1942 15.3409 14.7693C15.3409 14.3444 14.9965 14 14.5716 14C14.1467 14 13.8022 14.3444 13.8022 14.7693C13.8022 15.1942 14.1467 15.5387 14.5716 15.5387Z" fill="#FA7D23"/>
<path d="M17.0323 13.0494C17.2916 13.0494 17.5018 12.8392 17.5018 12.5799C17.5018 12.3206 17.2916 12.1104 17.0323 12.1104C16.773 12.1104 16.5627 12.3206 16.5627 12.5799C16.5627 12.8392 16.773 13.0494 17.0323 13.0494Z" fill="#FA7D23"/>
<path d="M19.9852 8.58605C20.3007 8.58605 20.5565 8.33025 20.5565 8.01471C20.5565 7.69916 20.3007 7.44336 19.9852 7.44336C19.6696 7.44336 19.4138 7.69916 19.4138 8.01471C19.4138 8.33025 19.6696 8.58605 19.9852 8.58605Z" fill="#FA7D23"/>
<path d="M18.6841 16.941C18.9434 16.941 19.1536 16.7308 19.1536 16.4715C19.1536 16.2122 18.9434 16.002 18.6841 16.002C18.4248 16.002 18.2146 16.2122 18.2146 16.4715C18.2146 16.7308 18.4248 16.941 18.6841 16.941Z" fill="#FA7D23"/>
<path d="M14.102 10.068C14.3613 10.068 14.5715 9.85774 14.5715 9.59843C14.5715 9.33912 14.3613 9.12891 14.102 9.12891C13.8427 9.12891 13.6324 9.33912 13.6324 9.59843C13.6324 9.85774 13.8427 10.068 14.102 10.068Z" fill="#FA7D23"/>
</svg>
