<svg width="32" height="30" viewBox="0 0 32 30" fill="none" xmlns="http://www.w3.org/2000/svg">
<path d="M30.2785 22.3554H28.4402C28.8902 21.9783 29.2287 21.4426 29.4087 20.6885C29.5286 20.1914 29.4729 19.7286 29.4172 19.2358C29.3529 18.6702 29.2844 18.0874 29.4558 17.3332C29.5843 16.7505 29.4901 16.3177 29.173 16.0349C28.7873 15.6963 28.1617 15.6835 27.309 15.992C27.039 16.0906 26.7947 16.2405 26.5891 16.4291C26.0791 16.2363 25.5306 16.1677 24.9821 16.2234C23.988 16.3305 23.0667 16.9262 22.4796 17.796C21.884 17.3932 21.1513 17.0761 20.3328 16.8619C20.0886 16.7976 19.84 16.9433 19.78 17.1875C19.7158 17.4318 19.8614 17.6803 20.1057 17.7403C20.8684 17.9374 21.5369 18.2374 22.064 18.6102C22.0511 18.6488 22.0383 18.6873 22.0254 18.7259C21.8754 19.1801 21.8197 19.6515 21.8669 20.0886C21.9611 20.9841 22.3382 21.7726 22.9124 22.3554H18.4559V20.9413H19.6643C19.9172 20.9413 20.1186 20.7399 20.1186 20.4871C20.1186 20.2343 19.9172 20.0329 19.6643 20.0329H14.4365V18.336C14.4922 18.3102 14.5479 18.2845 14.6079 18.246C15.4906 17.7318 16.7547 17.4489 18.0746 17.4704C18.0788 17.4704 18.0788 17.4704 18.0831 17.4704C18.3317 17.4704 18.5331 17.2732 18.5373 17.0247C18.5416 16.7719 18.3402 16.5662 18.0917 16.5619C17.5689 16.5533 17.059 16.5876 16.5705 16.6605V14.2437C16.9733 13.948 17.3547 13.5666 17.6503 13.0567C18.0831 12.3025 18.1003 11.8912 18.1346 11.1413C18.1388 11.0213 18.1431 10.8884 18.1517 10.7428C18.1517 10.7385 18.1517 10.7342 18.1517 10.7299C18.1517 10.7256 18.1517 10.7213 18.1517 10.717V9.60291C18.1517 8.2831 17.0761 7.20754 15.7563 7.20754H15.5978C16.2705 6.51764 16.7205 5.62634 16.7205 4.82502V3.89087C16.7205 2.72104 16.3434 1.72261 15.6363 1.01128C14.9936 0.372804 14.1408 0.0128553 13.2238 0C13.2195 0 13.2153 0 13.211 0C12.294 0.0128553 11.4369 0.372804 10.8027 1.01128C10.0914 1.72261 9.71861 2.71675 9.71861 3.89087V4.82502C9.71861 5.62634 10.1685 6.51764 10.8413 7.20754H10.6828C9.50436 7.20754 8.92587 7.92744 8.59163 8.47165L5.94344 12.7696C5.64348 12.234 4.90216 11.077 4.02371 11.0084C3.77946 10.9913 3.47522 10.9956 3.26953 11.2227C3.05528 11.4626 3.1067 11.7583 3.14955 11.9769L3.78803 15.6235C3.84374 15.9449 3.89087 16.202 4.10084 16.3734C4.32367 16.5533 4.58077 16.5276 4.88073 16.4976C4.94072 16.4891 5.00928 16.4848 5.0907 16.4762C6.35052 16.3605 7.31038 16.7248 7.66176 16.8876C8.04314 17.0633 8.38166 17.2561 8.68162 17.4532V19.8872C8.66876 19.8872 8.65591 19.8872 8.63877 19.8872H4.98357C4.44794 19.8872 4.43508 19.8572 4.36652 19.7115C4.27653 19.5229 3.46665 17.8689 2.35681 17.7832C2.11256 17.766 1.80403 17.7703 1.60263 17.9974C1.38837 18.2374 1.43979 18.5245 1.48265 18.7559L2.11256 22.3511H0.745608C0.334238 22.3554 0 22.6896 0 23.0967V26.6576C0 27.069 0.334238 27.4032 0.745608 27.4032H1.87687V28.2474C1.87687 29.2158 2.66533 30 3.62948 30H27.3904C28.3588 30 29.143 29.2115 29.143 28.2474V27.4032H30.2742C30.6856 27.4032 31.0199 27.069 31.0199 26.6576V23.0967C31.0241 22.6896 30.6899 22.3554 30.2785 22.3554ZM27.0904 19.6515C26.7262 18.8587 26.6533 18.1131 26.8847 17.5561C27.0261 17.2133 27.279 16.969 27.6175 16.849C27.9774 16.7162 28.2217 16.6819 28.3759 16.6819C28.4916 16.6819 28.5516 16.7033 28.5731 16.7205C28.5902 16.7333 28.6331 16.8447 28.5688 17.1361C28.3674 18.0403 28.4488 18.7645 28.5174 19.3429C28.5688 19.7715 28.6116 20.14 28.5302 20.4828C28.2731 21.5669 27.6432 22.0897 26.1648 22.2782C26.1691 22.274 26.1734 22.2697 26.1777 22.2697C27.4247 21.177 27.3604 20.2428 27.0904 19.6515ZM22.7625 19.99C22.7282 19.6815 22.771 19.343 22.8782 19.0087C23.161 18.156 23.9494 17.2432 25.0721 17.1233C25.4021 17.089 25.7278 17.119 26.0406 17.2047C25.7106 18.0017 25.7877 19.0044 26.2591 20.0286C26.7048 20.9927 25.0121 22.0169 24.4722 22.3125C23.5295 21.9569 22.8782 21.0827 22.7625 19.99ZM17.5475 20.9413V22.3554H13.5923C13.2324 22.3211 12.9496 22.0169 12.9496 21.6483C12.9496 21.2584 13.2667 20.9413 13.6566 20.9413H17.5475ZM15.6578 16.8447C15.1007 16.9947 14.5908 17.2004 14.1451 17.4618C14.1365 17.4661 14.128 17.4704 14.1194 17.4746C14.068 17.4147 14.0037 17.329 13.9437 17.2518C13.8709 17.1575 13.7766 17.0376 13.6695 16.9047C13.4338 16.6176 13.0953 16.2748 12.7482 15.9577L15.2507 14.9464C15.3792 14.895 15.5164 14.835 15.6578 14.7707V16.8447ZM11.7112 15.3964C11.5741 15.4521 11.4198 15.4478 11.2827 15.3921C11.1455 15.3321 11.0384 15.225 10.9827 15.0836C10.927 14.9464 10.927 14.7922 10.987 14.655C11.047 14.5136 11.1541 14.4065 11.2955 14.3508C11.2998 14.3508 11.3041 14.3465 11.3084 14.3465L13.6052 13.3524L14.1408 14.4151L11.7112 15.3964ZM13.2153 0.908442C14.3465 0.929867 15.5506 1.70119 15.7735 3.34238C14.7793 3.15384 12.7567 2.74675 12.5211 2.68676C12.3882 2.65248 12.2682 2.63962 12.1525 2.63962C11.724 2.63962 11.4155 2.85388 11.1627 3.02957C11.0041 3.14098 10.8542 3.24382 10.6613 3.32095C10.8884 1.6969 12.0883 0.929867 13.2153 0.908442ZM10.6185 4.82074V4.28082C11.107 4.1694 11.4284 3.94658 11.6769 3.77517C11.9769 3.56949 12.0711 3.5095 12.2897 3.5652C12.4525 3.60806 14.8093 4.08799 15.8077 4.27225V4.82074C15.8077 5.60063 15.0621 6.74475 14.0337 7.23754C14.0209 7.24182 14.0037 7.25039 13.9909 7.25468C13.9352 7.28039 13.8794 7.3061 13.8195 7.32752C13.5838 7.41323 13.3952 7.45179 13.2153 7.45179C13.0353 7.45179 12.8382 7.41323 12.6111 7.32752C12.5553 7.3061 12.4996 7.28467 12.4482 7.25896C12.4354 7.25039 12.4182 7.24611 12.4011 7.23754C11.4455 6.77903 10.6185 5.68633 10.6185 4.82074ZM14.2651 8.12884V8.26596C14.2651 8.92587 13.7937 9.46579 13.2153 9.46579C12.6368 9.46579 12.1654 8.92587 12.1654 8.26596V8.12884C12.2083 8.14598 12.2511 8.16312 12.294 8.18026C12.6282 8.30453 12.9239 8.36023 13.2153 8.36023C13.5066 8.36023 13.798 8.30453 14.1366 8.18026C14.1794 8.16312 14.2223 8.14598 14.2651 8.12884ZM9.35866 8.94301C9.7229 8.35166 10.1043 8.1117 10.6785 8.1117H11.257V8.26168C11.257 9.42294 12.1354 10.3699 13.2153 10.3699C14.2951 10.3699 15.1735 9.42294 15.1735 8.26168V8.1117H15.752C16.5705 8.1117 17.239 8.78017 17.239 9.59863V10.6999C17.2304 10.8456 17.2261 10.9741 17.2218 11.0941C17.1918 11.8183 17.1833 12.0326 16.8576 12.5939C16.4891 13.2324 15.9277 13.6738 14.985 14.0637L14.4322 12.9667C14.6422 12.8553 14.7965 12.7396 15.0064 12.5168C15.0279 12.4911 15.0493 12.4654 15.0664 12.4397L15.6149 11.5398C15.7435 11.3255 15.6749 11.047 15.4606 10.9142C15.2464 10.7856 14.9679 10.8542 14.835 11.0684L14.3122 11.9254C14.1408 12.1054 14.0594 12.1483 13.798 12.2597L10.9442 13.4938C10.687 13.5966 10.4728 13.768 10.3142 13.9866C9.90716 13.7637 9.47007 13.6009 9.02014 13.4766L9.94572 11.9726C10.0786 11.7583 10.01 11.4798 9.79574 11.3469C9.58149 11.2141 9.30296 11.2827 9.17012 11.4969L8.07313 13.2795C7.63605 13.211 7.19469 13.1638 6.76618 13.1296L9.35866 8.94301ZM6.37195 15.5935C5.96486 15.5378 5.50207 15.5206 5.00071 15.5678C4.9193 15.5763 4.72647 15.5978 4.70076 15.5978C4.69219 15.5506 4.05799 11.9383 4.05799 11.9383C4.41794 12.0926 4.95786 12.7996 5.25353 13.4209C5.42065 13.7766 5.60063 13.9309 5.84059 13.9866C6.12341 14.0209 6.3291 14.0166 6.42337 14.0251C6.54335 14.0337 6.66762 14.0423 6.7876 14.0551L6.37195 15.5935ZM9.58149 18.1774C10.2928 18.8587 10.6013 19.4972 10.6399 19.7329C10.5028 19.8015 10.1471 19.8486 9.58149 19.8743V18.1774ZM5.76775 20.7999H8.63019C10.3957 20.7999 10.9999 20.697 11.3384 20.3371C11.4498 20.2214 11.5741 20.0157 11.5526 19.7029C11.4969 18.863 10.34 17.1276 8.03457 16.0648C7.87602 15.992 7.61034 15.8806 7.26325 15.782L7.70461 14.158C8.53592 14.2737 9.35866 14.4794 10.0314 14.8864C10.0314 15.0664 10.0657 15.2507 10.1386 15.4221C10.2842 15.7863 10.5628 16.0734 10.927 16.2277C11.1156 16.3091 11.3127 16.3477 11.5098 16.3477C11.6041 16.3477 11.694 16.3391 11.784 16.322C12.2083 16.6733 12.6839 17.1361 12.971 17.4832C13.0738 17.6118 13.1595 17.7189 13.2324 17.8132C13.331 17.9417 13.4252 18.0617 13.5281 18.1645V20.0414C12.701 20.11 12.0454 20.8085 12.0454 21.6526C12.0454 21.9054 12.1054 22.1454 12.2083 22.3597H5.76775V20.7999ZM3.53521 20.1014C3.83945 20.7485 4.3708 20.7956 4.85931 20.7956V22.3511H3.02528L2.39109 18.713C2.75104 18.8587 3.26096 19.5186 3.53521 20.1014ZM30.1157 26.4991H16.5962C16.3434 26.4991 16.142 26.7005 16.142 26.9533C16.142 27.2061 16.3434 27.4075 16.5962 27.4075H28.2345V28.2517C28.2345 28.7188 27.8574 29.0958 27.3904 29.0958H3.62948C3.16241 29.0958 2.78532 28.7188 2.78532 28.2517V27.4075H14.5951C14.8479 27.4075 15.0493 27.2061 15.0493 26.9533C15.0493 26.7005 14.8479 26.4991 14.5951 26.4991H0.908442V23.2638H2.64391H30.1157V26.4991Z" fill="#FA7D23"/>
</svg>
